<?xml version="1.0" encoding="UTF-8"?>
<svg xmlns="http://www.w3.org/2000/svg" xmlns:xlink="http://www.w3.org/1999/xlink" id="Group_4535" data-name="Group 4535" width="178.761" height="61.292" viewBox="0 0 178.761 61.292">
  <defs>
    <clipPath id="clip-path">
      <rect id="Rectangle_2761" data-name="Rectangle 2761" width="178.761" height="61.292" fill="#ebe9e1"></rect>
    </clipPath>
  </defs>
  <g id="Group_4415" data-name="Group 4415" clip-path="url(#clip-path)">
    <path id="Path_3657" data-name="Path 3657" d="M69.665,83.883A1.381,1.381,0,1,0,68.29,82.5a1.376,1.376,0,0,0,1.375,1.381" transform="translate(-48.91 -58.099)" fill="#ebe9e1"></path>
    <path id="Path_3658" data-name="Path 3658" d="M89.725,64.2A1.381,1.381,0,1,0,88.35,62.82,1.376,1.376,0,0,0,89.725,64.2" transform="translate(-63.277 -44.003)" fill="#ebe9e1"></path>
    <path id="Path_3659" data-name="Path 3659" d="M110.889,44.615a1.381,1.381,0,1,0-1.375-1.382,1.376,1.376,0,0,0,1.375,1.382" transform="translate(-78.435 -29.975)" fill="#ebe9e1"></path>
    <path id="Path_3660" data-name="Path 3660" d="M203.254,83.883A1.381,1.381,0,1,0,201.88,82.5a1.376,1.376,0,0,0,1.374,1.381" transform="translate(-144.588 -58.099)" fill="#ebe9e1"></path>
    <path id="Path_3661" data-name="Path 3661" d="M183.194,64.2a1.381,1.381,0,1,0-1.374-1.382,1.376,1.376,0,0,0,1.374,1.382" transform="translate(-130.221 -44.003)" fill="#ebe9e1"></path>
    <path id="Path_3662" data-name="Path 3662" d="M162.031,44.615a1.381,1.381,0,1,0-1.374-1.382,1.376,1.376,0,0,0,1.374,1.382" transform="translate(-115.063 -29.975)" fill="#ebe9e1"></path>
    <path id="Path_3663" data-name="Path 3663" d="M136.748,53.19a1.381,1.381,0,1,0,1.374,1.381,1.377,1.377,0,0,0-1.374-1.381" transform="translate(-96.955 -38.095)" fill="#ebe9e1"></path>
    <path id="Path_3664" data-name="Path 3664" d="M135.681,28.848a1.8,1.8,0,0,0,1.788-1.621c.006-.06.01-.121.01-.184s0-.125-.01-.185a1.8,1.8,0,0,0-3.585.185,1.775,1.775,0,0,0,.009.184,1.8,1.8,0,0,0,1.788,1.621" transform="translate(-95.888 -18.074)" fill="#ebe9e1"></path>
    <path id="Path_3665" data-name="Path 3665" d="M136.748,80.779a1.381,1.381,0,1,0,1.374,1.381,1.377,1.377,0,0,0-1.374-1.381" transform="translate(-96.955 -57.854)" fill="#ebe9e1"></path>
    <path id="Path_3666" data-name="Path 3666" d="M136.748,107.237a1.381,1.381,0,1,0,1.374,1.381,1.377,1.377,0,0,0-1.374-1.381" transform="translate(-96.955 -76.804)" fill="#ebe9e1"></path>
    <path id="Path_3667" data-name="Path 3667" d="M138.639,137.125a1.374,1.374,0,1,0-1.374,1.38,1.376,1.376,0,0,0,1.374-1.38" transform="translate(-97.325 -97.221)" fill="#ebe9e1"></path>
    <path id="Path_3668" data-name="Path 3668" d="M90.083,141.686a1.381,1.381,0,1,0,1.374,1.381,1.378,1.378,0,0,0-1.374-1.381" transform="translate(-63.533 -101.476)" fill="#ebe9e1"></path>
    <path id="Path_3669" data-name="Path 3669" d="M113.608,136.94a1.381,1.381,0,1,0,1.374,1.381,1.377,1.377,0,0,0-1.374-1.381" transform="translate(-80.382 -98.077)" fill="#ebe9e1"></path>
    <path id="Path_3670" data-name="Path 3670" d="M159.822,139.7a1.381,1.381,0,1,0-1.374-1.382,1.376,1.376,0,0,0,1.374,1.382" transform="translate(-113.481 -98.077)" fill="#ebe9e1"></path>
    <path id="Path_3671" data-name="Path 3671" d="M183.413,144.449a1.381,1.381,0,1,0-1.374-1.381,1.376,1.376,0,0,0,1.374,1.381" transform="translate(-130.377 -101.476)" fill="#ebe9e1"></path>
    <path id="Path_3672" data-name="Path 3672" d="M179.349,95.844l-1.942-.593V92.06l-2.059-1.049v3.61l-1.943-.593v2.059l1.943.593v3.807l2.059.432v-3.61l1.942.593Z" transform="translate(-124.194 -65.183)" fill="#ebe9e1"></path>
    <path id="Path_3673" data-name="Path 3673" d="M86.084,97.746l1.942-.593v3.61l2.059-.432V96.523l1.943-.593V93.871l-1.943.593v-3.61L88.026,91.9v3.191l-1.942.593Z" transform="translate(-61.654 -65.07)" fill="#ebe9e1"></path>
    <path id="Path_3674" data-name="Path 3674" d="M79.778,55.926,73.589,42.3H64.941l-.2.253,0,0L56.8,52.456l-2.1-2.747a30.362,30.362,0,0,0,3.138-1.594l.219-.13,7.365-22.552L40.029,0,14.171,25.336l7.28,22.747.238.129a35.116,35.116,0,0,0,3.337,1.575l-2.045,2.669-7.937-9.909,0,0-.2-.253H6.189L0,55.926H10.035l.3-.694.355-.831.69-1.617L18.2,61.292h9.925l6.518-8.907a38.958,38.958,0,0,0,5.307.383,37.919,37.919,0,0,0,5.193-.374l6.512,8.9h9.925l.006-.008.009.007,6.809-8.5,1.339,3.136Zm-2.1-1.351H70.634l-.65-1.521-1.228-2.875-2.789-6.53h6.751ZM60.93,59.94H59.087l2.629-4.266L57.594,59.94h-1.68l3.567-5.279-5.3,5.279H52.547l12.333-15.4.6,1.4-4.414,6.617,4.99-5.269.605,1.417-2.969,4.6,3.467-3.436.641,1.5L61.41,59.342Zm-9.325-1L40.738,44.087a54.23,54.23,0,0,1,8.484.7l6.7,8.752ZM29.73,43.688l-.02-.016-.018.024a20.609,20.609,0,0,0-7.382,2.638l-1.5-4.675c3.239-2.834,10.606-4.664,19.051-4.688h.17c8.333,0,15.558,1.748,18.725,4.492l-1.523,4.663c-5.134-3.412-18.323-4.2-27.506-2.437M35.449,35.8c-5.693.453-11.665,1.792-15.081,4.462l-2.465-7.7L35.449,16.034Zm8.594-.044V16.034l17.6,16.585-2.436,7.459c-3.41-2.639-9.44-3.923-15.168-4.32M40.018,1.9,63.873,25.8,62.11,31.2,42.691,12.9V35.68c-.963-.044-1.912-.064-2.831-.062-.99,0-2.016.035-3.059.093V12.9L17.447,31.138l-1.735-5.42ZM30.492,44.874a54.863,54.863,0,0,1,8.542-.78L28.173,58.937l-4.321-5.4ZM7.059,43.648h6.751l-2.79,6.53h0l-1.877,4.4H2.1Zm4.92,7.726.641-1.5L16.084,53.3l-2.966-4.6.605-1.417,4.828,5.4L14.29,45.964l.607-1.421L27.23,59.94H25.591l-5.3-5.279,3.566,5.279h-1.68l-4.122-4.266,2.629,4.266H18.848Z" fill="#ebe9e1"></path>
    <path id="Path_3675" data-name="Path 3675" d="M307.415,45.4v-.608l1.013-.405c.788-.338,1.013-.586,1.013-1.193V31.122h-2c-1.058,0-1.441.338-2.207,1.689l-.721,1.305H303.9l.315-4.143h12.789l.315,4.143h-.608l-.721-1.305c-.765-1.351-1.148-1.689-2.206-1.689h-1.981V43.191c0,.607.18.855.991,1.193l1.013.405V45.4Z" transform="translate(-217.657 -21.468)" fill="#ebe9e1"></path>
    <path id="Path_3676" data-name="Path 3676" d="M356.541,45.4v-.608l.878-.36c.72-.315.9-.563.9-1.238V32.181c0-.676-.18-.946-.9-1.238l-.878-.36v-.608h6.529c3.625,0,5.764,1.6,5.764,4.278,0,2.071-1.419,3.625-3.783,4.21a3.051,3.051,0,0,1,1.216,1.193l2.094,3.625A2.4,2.4,0,0,0,369.8,44.5l.811.315V45.4h-3.737l-3.085-5.314c-.5-.833-.878-1.261-1.216-1.328h-1.891v4.436c0,.631.225.9,1.013,1.238l.878.36V45.4Zm4.143-7.79h2.049a3.327,3.327,0,0,0,3.58-3.354,3.254,3.254,0,0,0-3.557-3.13h-2.071Z" transform="translate(-255.357 -21.468)" fill="#ebe9e1"></path>
    <path id="Path_3677" data-name="Path 3677" d="M411.535,45.4v-.608l.878-.36c.721-.315.9-.585.9-1.238V32.181c0-.653-.18-.923-.9-1.238l-.878-.36v-.608h5.944v.608l-.9.36c-.721.315-.9.585-.9,1.238v11.01c0,.653.18.923.9,1.238l.9.36V45.4Z" transform="translate(-294.744 -21.468)" fill="#ebe9e1"></path>
    <path id="Path_3678" data-name="Path 3678" d="M452.124,45.667l-9.659-12.654V43.191c0,.63.2.923,1.1,1.261l.945.337V45.4h-5.156v-.608l.9-.36c.7-.293.878-.563.878-1.238V32.181c0-.721-.27-.968-.9-1.261l-.856-.337v-.608h3.76l8.848,11.8V32.2c0-.653-.18-.946-1.1-1.284l-.923-.337v-.608H455.1v.608l-.9.36c-.675.315-.878.562-.878,1.261V44.992Z" transform="translate(-314.671 -21.468)" fill="#ebe9e1"></path>
    <path id="Path_3679" data-name="Path 3679" d="M501.421,45.4v-.608l.878-.36c.721-.315.9-.585.9-1.238V32.181c0-.653-.18-.923-.9-1.238l-.878-.36v-.608h5.944v.608l-.9.36c-.721.315-.9.585-.9,1.238v11.01c0,.653.18.923.9,1.238l.9.36V45.4Z" transform="translate(-359.121 -21.468)" fill="#ebe9e1"></path>
    <path id="Path_3680" data-name="Path 3680" d="M531.145,45.4v-.608l1.013-.405c.788-.338,1.013-.586,1.013-1.193V31.122h-2c-1.058,0-1.441.338-2.206,1.689l-.721,1.305h-.608l.315-4.143h12.789l.315,4.143h-.608l-.721-1.305c-.765-1.351-1.148-1.689-2.206-1.689h-1.981V43.191c0,.607.18.855.991,1.193l1.013.405V45.4Z" transform="translate(-377.894 -21.468)" fill="#ebe9e1"></path>
    <path id="Path_3681" data-name="Path 3681" d="M582.595,45.4v-.608l1.013-.405c.811-.338,1.013-.586,1.013-1.193V39.633l-4.323-7.52c-.45-.811-.562-.968-1.1-1.193l-.788-.338v-.608h5.944v.608l-.743.293c-.608.247-.81.405-.81.653a1.467,1.467,0,0,0,.225.676l3.377,5.854,3.129-5.809a1.746,1.746,0,0,0,.225-.675c0-.293-.158-.45-.856-.7l-.788-.293v-.608h4.909v.608l-.9.36c-.5.2-.675.4-1.013,1.036l-4.12,7.452v3.76c0,.607.2.855.991,1.193l1.013.405V45.4Z" transform="translate(-414.259 -21.468)" fill="#ebe9e1"></path>
    <path id="Path_3682" data-name="Path 3682" d="M303.9,109.905a5.609,5.609,0,0,1,5.842-5.959,8.973,8.973,0,0,1,3.844.873l.185,2.585h-.47l-.655-1.007a3.212,3.212,0,0,0-2.9-1.561c-2.367,0-3.978,2.065-3.978,5.086,0,2.988,1.662,4.918,4.23,4.918a4,4,0,0,0,2.2-.554V111.92c0-.453-.185-.672-.789-.906l-.688-.285v-.453H314.8v.453l-.386.218a.794.794,0,0,0-.454.839v2.787a7.006,7.006,0,0,1-4.18,1.209c-3.743,0-5.875-2.132-5.875-5.875" transform="translate(-217.656 -74.447)" fill="#ebe9e1"></path>
    <path id="Path_3683" data-name="Path 3683" d="M345.8,116.036v-.453l.654-.268c.537-.235.672-.42.672-.923v-8.208c0-.5-.135-.705-.672-.923l-.654-.268v-.453h4.868c2.7,0,4.3,1.192,4.3,3.19a3.27,3.27,0,0,1-2.82,3.139,2.272,2.272,0,0,1,.906.889l1.561,2.7a1.792,1.792,0,0,0,1.074.906l.6.235v.436H353.5l-2.3-3.961c-.369-.621-.655-.94-.906-.99h-1.41v3.307c0,.47.168.671.755.923l.655.268v.453Zm3.089-5.808h1.528a2.48,2.48,0,0,0,2.669-2.5,2.426,2.426,0,0,0-2.652-2.333h-1.544Z" transform="translate(-247.664 -74.871)" fill="#ebe9e1"></path>
    <path id="Path_3684" data-name="Path 3684" d="M385.551,115.613v-.453l.654-.268c.47-.184.621-.369.839-.94l3.743-9.669,1.276-.336,3.928,10.072c.235.588.336.671.822.89l.6.251v.453H392.97v-.453l.554-.218c.554-.218.655-.352.655-.537a1.189,1.189,0,0,0-.118-.453l-.671-1.746h-4.683l-.638,1.695a1.735,1.735,0,0,0-.134.5c0,.2.134.336.7.537l.587.218v.453Zm3.492-4.281h3.995l-2.031-5.254Z" transform="translate(-276.134 -74.447)" fill="#ebe9e1"></path>
    <path id="Path_3685" data-name="Path 3685" d="M437.461,116.255l-3.794-9.8-.94,7.94a1.736,1.736,0,0,0-.017.3c0,.3.151.419.755.637l.705.252v.453h-3.76v-.453l.654-.268a.9.9,0,0,0,.672-.923l1.074-8.359a1.189,1.189,0,0,0,.017-.218c0-.269-.1-.336-.672-.571l-.654-.252v-.453h3.357l3.458,9.182,3.391-9.182h3.24v.453l-.655.252c-.571.235-.671.318-.671.571a1.137,1.137,0,0,0,.016.218l1.074,8.359c.067.571.185.722.671.923l.655.268v.453h-4.515v-.453l.7-.252c.554-.2.722-.319.722-.621a2.065,2.065,0,0,0-.033-.319l-.957-7.956-3.542,9.467Z" transform="translate(-308.263 -74.871)" fill="#ebe9e1"></path>
    <path id="Path_3686" data-name="Path 3686" d="M496.044,116.255l-3.794-9.8-.94,7.94a1.729,1.729,0,0,0-.017.3c0,.3.151.419.755.637l.7.252v.453h-3.76v-.453l.654-.268a.9.9,0,0,0,.672-.923l1.074-8.359a1.213,1.213,0,0,0,.017-.218c0-.269-.1-.336-.671-.571l-.654-.252v-.453h3.357l3.458,9.182,3.391-9.182h3.24v.453l-.655.252c-.571.235-.671.318-.671.571a1.1,1.1,0,0,0,.017.218l1.074,8.359c.067.571.185.722.671.923l.655.268v.453h-4.516v-.453l.705-.252c.554-.2.722-.319.722-.621a2.061,2.061,0,0,0-.034-.319l-.957-7.956L497,115.9Z" transform="translate(-350.22 -74.871)" fill="#ebe9e1"></path>
    <path id="Path_3687" data-name="Path 3687" d="M547.132,115.613v-.453l.654-.268c.47-.184.621-.369.839-.94l3.743-9.669,1.276-.336,3.928,10.072c.235.588.336.671.822.89l.6.251v.453h-4.448v-.453l.554-.218c.554-.218.655-.352.655-.537a1.189,1.189,0,0,0-.118-.453l-.672-1.746h-4.683l-.638,1.695a1.734,1.734,0,0,0-.134.5c0,.2.134.336.7.537l.587.218v.453Zm3.492-4.281h4l-2.031-5.254Z" transform="translate(-391.859 -74.447)" fill="#ebe9e1"></path>
    <path id="Path_3688" data-name="Path 3688" d="M592.927,116.036v-.453l.654-.268c.537-.235.672-.42.672-.923v-8.208c0-.5-.135-.705-.672-.923l-.654-.268v-.453h4.868c2.7,0,4.3,1.192,4.3,3.19a3.27,3.27,0,0,1-2.82,3.139,2.272,2.272,0,0,1,.906.889l1.561,2.7a1.793,1.793,0,0,0,1.074.906l.6.235v.436h-2.787l-2.3-3.961c-.369-.621-.655-.94-.906-.99h-1.41v3.307c0,.47.168.671.755.923l.655.268v.453Zm3.089-5.808h1.528a2.48,2.48,0,0,0,2.669-2.5,2.426,2.426,0,0,0-2.652-2.333h-1.544Z" transform="translate(-424.658 -74.871)" fill="#ebe9e1"></path>
    <path id="Path_3689" data-name="Path 3689" d="M303.9,173.435V171.21h.375l.362.871a2.259,2.259,0,0,0,2.266,1.448,1.633,1.633,0,0,0,1.823-1.475c0-.817-.563-1.3-2.708-2.292-1.448-.67-2.091-1.448-2.091-2.52,0-1.434,1.22-2.439,2.923-2.439a6.026,6.026,0,0,1,2.493.576l.161,1.984h-.375l-.348-.616a2.267,2.267,0,0,0-2.078-1.233,1.433,1.433,0,0,0-1.568,1.34c0,.711.5,1.153,2.185,1.971,1.957.938,2.681,1.716,2.681,2.855,0,1.5-1.26,2.574-3.15,2.574a5.183,5.183,0,0,1-2.949-.818" transform="translate(-217.656 -118.032)" fill="#ebe9e1"></path>
    <path id="Path_3690" data-name="Path 3690" d="M329.416,169.6a4.441,4.441,0,0,1,4.665-4.8,7.5,7.5,0,0,1,3,.657l.188,2.1H336.9l-.617-.912a2.653,2.653,0,0,0-2.252-1.139c-1.823,0-3.123,1.716-3.123,4.048,0,2.372,1.314,3.941,3.311,3.941a3.129,3.129,0,0,0,2.828-2.064h.375l-.281,1.93a5.024,5.024,0,0,1-3,.885c-2.949,0-4.719-1.756-4.719-4.651" transform="translate(-235.93 -118.032)" fill="#ebe9e1"></path>
    <path id="Path_3691" data-name="Path 3691" d="M361.163,174.456v-.362l.523-.215c.429-.188.536-.349.536-.737v-6.555c0-.389-.107-.55-.536-.737l-.523-.215v-.362H364.7v.362l-.536.215c-.429.188-.536.349-.536.737v2.855h4.651v-2.855c0-.389-.107-.55-.536-.737l-.523-.215v-.362h3.539v.362l-.536.215c-.429.188-.536.349-.536.737v6.555c0,.389.107.55.536.737l.536.215v.362h-3.539v-.362l.523-.215c.429-.188.536-.349.536-.737v-2.976H363.63v2.976c0,.389.107.55.536.737l.536.215v.362Z" transform="translate(-258.667 -118.37)" fill="#ebe9e1"></path>
    <path id="Path_3692" data-name="Path 3692" d="M398.269,169.534a4.493,4.493,0,0,1,4.41-4.732c2.748,0,4.41,1.783,4.41,4.732a4.465,4.465,0,0,1-4.41,4.719c-2.761,0-4.41-1.769-4.41-4.719m7.332,0c0-2.346-1.206-4.008-2.922-4.008-1.689,0-2.922,1.716-2.922,4.008,0,2.346,1.193,3.995,2.922,3.995,1.689,0,2.922-1.7,2.922-3.995" transform="translate(-285.243 -118.032)" fill="#ebe9e1"></path>
    <path id="Path_3693" data-name="Path 3693" d="M433.629,169.534a4.493,4.493,0,0,1,4.41-4.732c2.748,0,4.41,1.783,4.41,4.732a4.465,4.465,0,0,1-4.41,4.719c-2.761,0-4.41-1.769-4.41-4.719m7.332,0c0-2.346-1.206-4.008-2.922-4.008-1.689,0-2.922,1.716-2.922,4.008,0,2.346,1.193,3.995,2.922,3.995,1.689,0,2.922-1.7,2.922-3.995" transform="translate(-310.568 -118.032)" fill="#ebe9e1"></path>
    <path id="Path_3694" data-name="Path 3694" d="M468,174.456v-.362l.523-.215c.429-.188.536-.349.536-.737v-6.555c0-.389-.107-.55-.536-.737l-.523-.215v-.362h3.539v.362l-.536.215c-.429.188-.536.349-.536.737v6.475c0,.55.134.71.657.71h1.689c.684,0,.925-.134,1.421-.938l.429-.764h.362l-.295,2.386Z" transform="translate(-335.182 -118.37)" fill="#ebe9e1"></path>
    <path id="Path_3695" data-name="Path 3695" d="M495.955,195.427a2.489,2.489,0,0,0,1.005-1.77.953.953,0,0,0-.63-.858v-.335c.871-.576,1.005-.643,1.139-.643.429,0,.764.5.764,1.139a3.6,3.6,0,0,1-1.984,2.748Z" transform="translate(-355.206 -137.383)" fill="#ebe9e1"></path>
    <path id="Path_3696" data-name="Path 3696" d="M519.516,174.456v-.362l.523-.215c.429-.188.536-.335.536-.737v-6.555c0-.4-.107-.563-.536-.737l-.523-.215v-.362h3.539v.362l-.536.215c-.416.174-.536.335-.536.737v2.855h.67a1.1,1.1,0,0,0,.938-.549l1.769-2.279a1.19,1.19,0,0,0,.268-.5c0-.121-.121-.215-.429-.322l-.429-.161v-.362h3v.362l-.563.228a1.555,1.555,0,0,0-.818.657l-2.319,2.963a3.07,3.07,0,0,1,.684.778l1.89,2.855a1.718,1.718,0,0,0,.939.8l.469.188v.348H525.87l-2.855-4.33h-1.032v3.016c0,.4.12.55.536.737l.536.215v.362Z" transform="translate(-372.08 -118.37)" fill="#ebe9e1"></path>
    <path id="Path_3697" data-name="Path 3697" d="M552.944,174.456v-.362l.523-.215c.429-.188.536-.362.536-.724v-6.568c0-.389-.094-.55-.536-.737l-.523-.215v-.362H560l.161,2.091h-.375l-.415-.671c-.389-.6-.59-.737-1.22-.737h-2.734v3.526h2.118c.415,0,.563-.107.751-.536l.2-.523h.362v2.936h-.362l-.2-.589c-.175-.483-.349-.6-.751-.6h-2.118v2.869c0,.576.134.737.67.737h2.145a1.3,1.3,0,0,0,1.354-.778l.442-.724h.362l-.295,2.185Z" transform="translate(-396.022 -118.37)" fill="#ebe9e1"></path>
    <path id="Path_3698" data-name="Path 3698" d="M585.334,174.59l-2.614-8.029a.9.9,0,0,0-.63-.711l-.469-.215v-.348h3.472v.348l-.442.188c-.442.174-.509.268-.509.429a1.211,1.211,0,0,0,.08.349l1.81,5.791,2.332-6.917.791-.2,2.413,7.118,1.756-5.737a1.717,1.717,0,0,0,.107-.416c0-.161-.067-.255-.523-.429l-.469-.174v-.348h2.882v.348l-.536.228a.988.988,0,0,0-.63.738l-2.467,7.708-.71.282-2.547-7.252-2.333,6.971Z" transform="translate(-416.56 -118.37)" fill="#ebe9e1"></path>
  </g>
</svg>
